<mxfile host="app.diagrams.net" agent="Mozilla/5.0 (Linux; Android 10; K) AppleWebKit/537.36 (KHTML, like Gecko) Chrome/135.0.0.0 Mobile Safari/537.36" version="26.2.14" pages="2">
  <diagram id="prtHgNgQTEPvFCAcTncT" name="Page-1">
    <mxGraphModel grid="1" page="1" gridSize="10" guides="1" tooltips="1" connect="1" arrows="1" fold="1" pageScale="1" pageWidth="827" pageHeight="1169" math="0" shadow="0">
      <root>
        <mxCell id="0" />
        <mxCell id="1" parent="0" />
        <mxCell id="dNxyNK7c78bLwvsdeMH5-19" value="Colsanitas S.A." style="swimlane;html=1;childLayout=stackLayout;resizeParent=1;resizeParentMax=0;horizontal=0;startSize=20;horizontalStack=0;" vertex="1" parent="1">
          <mxGeometry x="120" y="39" width="1590" height="1579" as="geometry" />
        </mxCell>
        <mxCell id="dNxyNK7c78bLwvsdeMH5-20" value="Personal general" style="swimlane;html=1;startSize=20;horizontal=0;" vertex="1" parent="dNxyNK7c78bLwvsdeMH5-19">
          <mxGeometry x="20" width="1570" height="1220" as="geometry" />
        </mxCell>
        <mxCell id="6uNuohvBClFwEubtQM0P-59" value="" style="edgeStyle=orthogonalEdgeStyle;rounded=0;orthogonalLoop=1;jettySize=auto;html=1;" edge="1" parent="dNxyNK7c78bLwvsdeMH5-20" source="dNxyNK7c78bLwvsdeMH5-24" target="6uNuohvBClFwEubtQM0P-58">
          <mxGeometry relative="1" as="geometry" />
        </mxCell>
        <mxCell id="dNxyNK7c78bLwvsdeMH5-24" value="Se genera la programación de turnos" style="rounded=0;whiteSpace=wrap;html=1;fontFamily=Helvetica;fontSize=12;fontColor=#000000;align=center;" vertex="1" parent="dNxyNK7c78bLwvsdeMH5-20">
          <mxGeometry x="270" y="76" width="80" height="60" as="geometry" />
        </mxCell>
        <mxCell id="80C0kGaNFeoFj5gj8l5e-6" style="edgeStyle=orthogonalEdgeStyle;rounded=0;orthogonalLoop=1;jettySize=auto;html=1;entryX=0;entryY=0.5;entryDx=0;entryDy=0;" edge="1" parent="dNxyNK7c78bLwvsdeMH5-20" source="6uNuohvBClFwEubtQM0P-58" target="G8VEn8A2zDeXbWlmmFCE-29">
          <mxGeometry relative="1" as="geometry" />
        </mxCell>
        <mxCell id="80C0kGaNFeoFj5gj8l5e-10" style="edgeStyle=orthogonalEdgeStyle;rounded=0;orthogonalLoop=1;jettySize=auto;html=1;entryX=0;entryY=0.5;entryDx=0;entryDy=0;" edge="1" parent="dNxyNK7c78bLwvsdeMH5-20" source="6uNuohvBClFwEubtQM0P-58" target="G8VEn8A2zDeXbWlmmFCE-20">
          <mxGeometry relative="1" as="geometry" />
        </mxCell>
        <mxCell id="80C0kGaNFeoFj5gj8l5e-18" style="edgeStyle=orthogonalEdgeStyle;rounded=0;orthogonalLoop=1;jettySize=auto;html=1;entryX=0;entryY=0.5;entryDx=0;entryDy=0;" edge="1" parent="dNxyNK7c78bLwvsdeMH5-20" source="6uNuohvBClFwEubtQM0P-58" target="G8VEn8A2zDeXbWlmmFCE-26">
          <mxGeometry relative="1" as="geometry" />
        </mxCell>
        <mxCell id="80C0kGaNFeoFj5gj8l5e-23" style="edgeStyle=orthogonalEdgeStyle;rounded=0;orthogonalLoop=1;jettySize=auto;html=1;entryX=0;entryY=0.5;entryDx=0;entryDy=0;" edge="1" parent="dNxyNK7c78bLwvsdeMH5-20" source="6uNuohvBClFwEubtQM0P-58" target="G8VEn8A2zDeXbWlmmFCE-32">
          <mxGeometry relative="1" as="geometry" />
        </mxCell>
        <mxCell id="80C0kGaNFeoFj5gj8l5e-35" style="edgeStyle=orthogonalEdgeStyle;rounded=0;orthogonalLoop=1;jettySize=auto;html=1;exitX=0.5;exitY=1;exitDx=0;exitDy=0;entryX=0.5;entryY=1;entryDx=0;entryDy=0;" edge="1" parent="dNxyNK7c78bLwvsdeMH5-20" source="6uNuohvBClFwEubtQM0P-58" target="dNxyNK7c78bLwvsdeMH5-24">
          <mxGeometry relative="1" as="geometry" />
        </mxCell>
        <mxCell id="80C0kGaNFeoFj5gj8l5e-42" value="no" style="edgeLabel;html=1;align=center;verticalAlign=middle;resizable=0;points=[];" connectable="0" vertex="1" parent="80C0kGaNFeoFj5gj8l5e-35">
          <mxGeometry x="-0.1185" y="-3" relative="1" as="geometry">
            <mxPoint as="offset" />
          </mxGeometry>
        </mxCell>
        <mxCell id="k3hS_G0epfSejRy-nzvK-16" style="edgeStyle=orthogonalEdgeStyle;rounded=0;orthogonalLoop=1;jettySize=auto;html=1;entryX=0;entryY=0.5;entryDx=0;entryDy=0;" edge="1" parent="dNxyNK7c78bLwvsdeMH5-20" source="6uNuohvBClFwEubtQM0P-58" target="k3hS_G0epfSejRy-nzvK-15">
          <mxGeometry relative="1" as="geometry" />
        </mxCell>
        <mxCell id="k3hS_G0epfSejRy-nzvK-320" style="edgeStyle=orthogonalEdgeStyle;rounded=0;orthogonalLoop=1;jettySize=auto;html=1;exitX=1;exitY=0.5;exitDx=0;exitDy=0;entryX=0;entryY=0.5;entryDx=0;entryDy=0;" edge="1" parent="dNxyNK7c78bLwvsdeMH5-20" source="6uNuohvBClFwEubtQM0P-58" target="k3hS_G0epfSejRy-nzvK-319">
          <mxGeometry relative="1" as="geometry" />
        </mxCell>
        <mxCell id="6uNuohvBClFwEubtQM0P-58" value="¿Acepta la programación?" style="rhombus;whiteSpace=wrap;html=1;fontColor=#000000;rounded=0;" vertex="1" parent="dNxyNK7c78bLwvsdeMH5-20">
          <mxGeometry x="420" y="76" width="80" height="80" as="geometry" />
        </mxCell>
        <mxCell id="G8VEn8A2zDeXbWlmmFCE-4" style="edgeStyle=orthogonalEdgeStyle;rounded=0;orthogonalLoop=1;jettySize=auto;html=1;entryX=0;entryY=0.5;entryDx=0;entryDy=0;" edge="1" parent="dNxyNK7c78bLwvsdeMH5-20" source="G8VEn8A2zDeXbWlmmFCE-1" target="dNxyNK7c78bLwvsdeMH5-24">
          <mxGeometry relative="1" as="geometry" />
        </mxCell>
        <mxCell id="k3hS_G0epfSejRy-nzvK-104" value="Si" style="edgeLabel;html=1;align=center;verticalAlign=middle;resizable=0;points=[];" connectable="0" vertex="1" parent="G8VEn8A2zDeXbWlmmFCE-4">
          <mxGeometry x="-0.6436" relative="1" as="geometry">
            <mxPoint as="offset" />
          </mxGeometry>
        </mxCell>
        <mxCell id="aUFt-qSuvgxoTt3ncgCO-9" style="edgeStyle=orthogonalEdgeStyle;rounded=0;orthogonalLoop=1;jettySize=auto;html=1;exitX=0;exitY=0.5;exitDx=0;exitDy=0;entryX=0.5;entryY=1;entryDx=0;entryDy=0;" edge="1" parent="dNxyNK7c78bLwvsdeMH5-20" source="G8VEn8A2zDeXbWlmmFCE-1" target="aUFt-qSuvgxoTt3ncgCO-7">
          <mxGeometry relative="1" as="geometry" />
        </mxCell>
        <mxCell id="aUFt-qSuvgxoTt3ncgCO-12" value="No" style="edgeLabel;html=1;align=center;verticalAlign=middle;resizable=0;points=[];" connectable="0" vertex="1" parent="aUFt-qSuvgxoTt3ncgCO-9">
          <mxGeometry x="-0.45" y="-1" relative="1" as="geometry">
            <mxPoint as="offset" />
          </mxGeometry>
        </mxCell>
        <mxCell id="G8VEn8A2zDeXbWlmmFCE-1" value="¿Acepta el tipo de contrato?" style="rhombus;whiteSpace=wrap;html=1;fontColor=#000000;rounded=0;" vertex="1" parent="dNxyNK7c78bLwvsdeMH5-20">
          <mxGeometry x="130" y="107" width="80" height="80" as="geometry" />
        </mxCell>
        <mxCell id="80C0kGaNFeoFj5gj8l5e-82" style="edgeStyle=orthogonalEdgeStyle;rounded=0;orthogonalLoop=1;jettySize=auto;html=1;exitX=1;exitY=0.75;exitDx=0;exitDy=0;entryX=0;entryY=0.5;entryDx=0;entryDy=0;" edge="1" parent="dNxyNK7c78bLwvsdeMH5-20" source="G8VEn8A2zDeXbWlmmFCE-20" target="G8VEn8A2zDeXbWlmmFCE-45">
          <mxGeometry relative="1" as="geometry" />
        </mxCell>
        <mxCell id="k3hS_G0epfSejRy-nzvK-106" value="No" style="edgeLabel;html=1;align=center;verticalAlign=middle;resizable=0;points=[];" connectable="0" vertex="1" parent="80C0kGaNFeoFj5gj8l5e-82">
          <mxGeometry x="0.4251" relative="1" as="geometry">
            <mxPoint x="1" y="1" as="offset" />
          </mxGeometry>
        </mxCell>
        <mxCell id="aUFt-qSuvgxoTt3ncgCO-4" style="edgeStyle=orthogonalEdgeStyle;rounded=0;orthogonalLoop=1;jettySize=auto;html=1;exitX=0.5;exitY=0;exitDx=0;exitDy=0;entryX=0;entryY=0.5;entryDx=0;entryDy=0;" edge="1" parent="dNxyNK7c78bLwvsdeMH5-20" source="G8VEn8A2zDeXbWlmmFCE-20" target="aUFt-qSuvgxoTt3ncgCO-1">
          <mxGeometry relative="1" as="geometry" />
        </mxCell>
        <mxCell id="aUFt-qSuvgxoTt3ncgCO-19" value="Sí" style="edgeLabel;html=1;align=center;verticalAlign=middle;resizable=0;points=[];" connectable="0" vertex="1" parent="aUFt-qSuvgxoTt3ncgCO-4">
          <mxGeometry x="0.115" y="-3" relative="1" as="geometry">
            <mxPoint y="1" as="offset" />
          </mxGeometry>
        </mxCell>
        <mxCell id="G8VEn8A2zDeXbWlmmFCE-20" value="Se realizan horas extras" style="whiteSpace=wrap;html=1;fontColor=#000000;rounded=0;" vertex="1" parent="dNxyNK7c78bLwvsdeMH5-20">
          <mxGeometry x="580" y="-9" width="120" height="60" as="geometry" />
        </mxCell>
        <mxCell id="80C0kGaNFeoFj5gj8l5e-44" style="edgeStyle=orthogonalEdgeStyle;rounded=0;orthogonalLoop=1;jettySize=auto;html=1;exitX=1;exitY=0.5;exitDx=0;exitDy=0;entryX=0;entryY=0.5;entryDx=0;entryDy=0;" edge="1" parent="dNxyNK7c78bLwvsdeMH5-20" source="G8VEn8A2zDeXbWlmmFCE-26" target="80C0kGaNFeoFj5gj8l5e-43">
          <mxGeometry relative="1" as="geometry" />
        </mxCell>
        <mxCell id="G8VEn8A2zDeXbWlmmFCE-26" value="Se solicitan vacaciones" style="whiteSpace=wrap;html=1;fontColor=#000000;rounded=0;" vertex="1" parent="dNxyNK7c78bLwvsdeMH5-20">
          <mxGeometry x="600" y="146" width="120" height="60" as="geometry" />
        </mxCell>
        <mxCell id="G8VEn8A2zDeXbWlmmFCE-41" value="" style="edgeStyle=orthogonalEdgeStyle;rounded=0;orthogonalLoop=1;jettySize=auto;html=1;" edge="1" parent="dNxyNK7c78bLwvsdeMH5-20" source="G8VEn8A2zDeXbWlmmFCE-29" target="G8VEn8A2zDeXbWlmmFCE-40">
          <mxGeometry relative="1" as="geometry" />
        </mxCell>
        <mxCell id="G8VEn8A2zDeXbWlmmFCE-29" value="Se solicitan permisos" style="whiteSpace=wrap;html=1;fontColor=#000000;rounded=0;" vertex="1" parent="dNxyNK7c78bLwvsdeMH5-20">
          <mxGeometry x="599" y="380" width="120" height="60" as="geometry" />
        </mxCell>
        <mxCell id="80C0kGaNFeoFj5gj8l5e-26" style="edgeStyle=orthogonalEdgeStyle;rounded=0;orthogonalLoop=1;jettySize=auto;html=1;" edge="1" parent="dNxyNK7c78bLwvsdeMH5-20" source="G8VEn8A2zDeXbWlmmFCE-32" target="G8VEn8A2zDeXbWlmmFCE-36">
          <mxGeometry relative="1" as="geometry" />
        </mxCell>
        <mxCell id="G8VEn8A2zDeXbWlmmFCE-32" value="Se solicitan licencias" style="whiteSpace=wrap;html=1;fontColor=#000000;rounded=0;" vertex="1" parent="dNxyNK7c78bLwvsdeMH5-20">
          <mxGeometry x="600" y="563" width="120" height="60" as="geometry" />
        </mxCell>
        <mxCell id="k3hS_G0epfSejRy-nzvK-120" style="edgeStyle=orthogonalEdgeStyle;rounded=0;orthogonalLoop=1;jettySize=auto;html=1;exitX=1;exitY=0;exitDx=0;exitDy=0;entryX=0.5;entryY=1;entryDx=0;entryDy=0;" edge="1" parent="dNxyNK7c78bLwvsdeMH5-20" source="G8VEn8A2zDeXbWlmmFCE-36" target="80C0kGaNFeoFj5gj8l5e-97">
          <mxGeometry relative="1" as="geometry" />
        </mxCell>
        <mxCell id="aUFt-qSuvgxoTt3ncgCO-20" value="No" style="edgeLabel;html=1;align=center;verticalAlign=middle;resizable=0;points=[];" connectable="0" vertex="1" parent="k3hS_G0epfSejRy-nzvK-120">
          <mxGeometry x="-0.4676" y="1" relative="1" as="geometry">
            <mxPoint as="offset" />
          </mxGeometry>
        </mxCell>
        <mxCell id="k3hS_G0epfSejRy-nzvK-312" value="" style="edgeStyle=orthogonalEdgeStyle;rounded=0;orthogonalLoop=1;jettySize=auto;html=1;" edge="1" parent="dNxyNK7c78bLwvsdeMH5-20" source="G8VEn8A2zDeXbWlmmFCE-36" target="k3hS_G0epfSejRy-nzvK-311">
          <mxGeometry relative="1" as="geometry" />
        </mxCell>
        <mxCell id="G8VEn8A2zDeXbWlmmFCE-36" value="¿Es licencia remunerada?" style="rhombus;whiteSpace=wrap;html=1;fontColor=#000000;rounded=0;" vertex="1" parent="dNxyNK7c78bLwvsdeMH5-20">
          <mxGeometry x="766" y="553" width="80" height="80" as="geometry" />
        </mxCell>
        <mxCell id="80C0kGaNFeoFj5gj8l5e-92" value="" style="edgeStyle=orthogonalEdgeStyle;rounded=0;orthogonalLoop=1;jettySize=auto;html=1;" edge="1" parent="dNxyNK7c78bLwvsdeMH5-20" source="G8VEn8A2zDeXbWlmmFCE-40" target="80C0kGaNFeoFj5gj8l5e-91">
          <mxGeometry relative="1" as="geometry" />
        </mxCell>
        <mxCell id="k3hS_G0epfSejRy-nzvK-114" value="Si" style="edgeLabel;html=1;align=center;verticalAlign=middle;resizable=0;points=[];" connectable="0" vertex="1" parent="80C0kGaNFeoFj5gj8l5e-92">
          <mxGeometry x="-0.4091" y="1" relative="1" as="geometry">
            <mxPoint as="offset" />
          </mxGeometry>
        </mxCell>
        <mxCell id="80C0kGaNFeoFj5gj8l5e-104" style="edgeStyle=orthogonalEdgeStyle;rounded=0;orthogonalLoop=1;jettySize=auto;html=1;exitX=1;exitY=1;exitDx=0;exitDy=0;entryX=0.5;entryY=0;entryDx=0;entryDy=0;" edge="1" parent="dNxyNK7c78bLwvsdeMH5-20" source="G8VEn8A2zDeXbWlmmFCE-40" target="80C0kGaNFeoFj5gj8l5e-97">
          <mxGeometry relative="1" as="geometry" />
        </mxCell>
        <mxCell id="k3hS_G0epfSejRy-nzvK-116" value="No" style="edgeLabel;html=1;align=center;verticalAlign=middle;resizable=0;points=[];" connectable="0" vertex="1" parent="80C0kGaNFeoFj5gj8l5e-104">
          <mxGeometry x="-0.1765" y="1" relative="1" as="geometry">
            <mxPoint as="offset" />
          </mxGeometry>
        </mxCell>
        <mxCell id="G8VEn8A2zDeXbWlmmFCE-40" value="¿Es permiso remunerado?" style="rhombus;whiteSpace=wrap;html=1;fontColor=#000000;rounded=0;" vertex="1" parent="dNxyNK7c78bLwvsdeMH5-20">
          <mxGeometry x="766" y="370" width="80" height="80" as="geometry" />
        </mxCell>
        <mxCell id="G8VEn8A2zDeXbWlmmFCE-42" value="Se informa a nómina" style="whiteSpace=wrap;html=1;fontColor=#000000;rounded=0;" vertex="1" parent="dNxyNK7c78bLwvsdeMH5-20">
          <mxGeometry x="1090" y="10" width="120" height="32" as="geometry" />
        </mxCell>
        <mxCell id="G8VEn8A2zDeXbWlmmFCE-45" value="FIN" style="ellipse;whiteSpace=wrap;html=1;rounded=0;fillColor=#f8cecc;strokeColor=#b85450;" vertex="1" parent="dNxyNK7c78bLwvsdeMH5-20">
          <mxGeometry x="792" y="108" width="38" height="33" as="geometry" />
        </mxCell>
        <mxCell id="80C0kGaNFeoFj5gj8l5e-47" style="edgeStyle=orthogonalEdgeStyle;rounded=0;orthogonalLoop=1;jettySize=auto;html=1;entryX=0;entryY=0.5;entryDx=0;entryDy=0;" edge="1" parent="dNxyNK7c78bLwvsdeMH5-20" source="80C0kGaNFeoFj5gj8l5e-43" target="80C0kGaNFeoFj5gj8l5e-45">
          <mxGeometry relative="1" as="geometry" />
        </mxCell>
        <mxCell id="80C0kGaNFeoFj5gj8l5e-52" style="edgeStyle=orthogonalEdgeStyle;rounded=0;orthogonalLoop=1;jettySize=auto;html=1;exitX=1;exitY=0.5;exitDx=0;exitDy=0;entryX=0;entryY=0.5;entryDx=0;entryDy=0;" edge="1" parent="dNxyNK7c78bLwvsdeMH5-20" source="80C0kGaNFeoFj5gj8l5e-43" target="80C0kGaNFeoFj5gj8l5e-50">
          <mxGeometry relative="1" as="geometry" />
        </mxCell>
        <mxCell id="80C0kGaNFeoFj5gj8l5e-53" style="edgeStyle=orthogonalEdgeStyle;rounded=0;orthogonalLoop=1;jettySize=auto;html=1;entryX=0;entryY=0.5;entryDx=0;entryDy=0;" edge="1" parent="dNxyNK7c78bLwvsdeMH5-20" source="80C0kGaNFeoFj5gj8l5e-43" target="80C0kGaNFeoFj5gj8l5e-51">
          <mxGeometry relative="1" as="geometry" />
        </mxCell>
        <mxCell id="k3hS_G0epfSejRy-nzvK-107" value="Si" style="edgeLabel;html=1;align=center;verticalAlign=middle;resizable=0;points=[];" connectable="0" vertex="1" parent="80C0kGaNFeoFj5gj8l5e-53">
          <mxGeometry x="-0.9175" relative="1" as="geometry">
            <mxPoint as="offset" />
          </mxGeometry>
        </mxCell>
        <mxCell id="80C0kGaNFeoFj5gj8l5e-43" value="se validan requisitos" style="whiteSpace=wrap;html=1;fontColor=#000000;" vertex="1" parent="dNxyNK7c78bLwvsdeMH5-20">
          <mxGeometry x="761" y="164" width="120" height="24" as="geometry" />
        </mxCell>
        <mxCell id="80C0kGaNFeoFj5gj8l5e-77" style="edgeStyle=orthogonalEdgeStyle;rounded=0;orthogonalLoop=1;jettySize=auto;html=1;exitX=1;exitY=0;exitDx=0;exitDy=0;entryX=0;entryY=0.5;entryDx=0;entryDy=0;" edge="1" parent="dNxyNK7c78bLwvsdeMH5-20" source="80C0kGaNFeoFj5gj8l5e-45" target="80C0kGaNFeoFj5gj8l5e-75">
          <mxGeometry relative="1" as="geometry" />
        </mxCell>
        <mxCell id="k3hS_G0epfSejRy-nzvK-108" value="No" style="edgeLabel;html=1;align=center;verticalAlign=middle;resizable=0;points=[];" connectable="0" vertex="1" parent="80C0kGaNFeoFj5gj8l5e-77">
          <mxGeometry x="-0.0868" y="3" relative="1" as="geometry">
            <mxPoint as="offset" />
          </mxGeometry>
        </mxCell>
        <mxCell id="80C0kGaNFeoFj5gj8l5e-45" value="¿cumple con la antigüedad?" style="rhombus;whiteSpace=wrap;html=1;fontColor=#000000;" vertex="1" parent="dNxyNK7c78bLwvsdeMH5-20">
          <mxGeometry x="921" y="67" width="80" height="80" as="geometry" />
        </mxCell>
        <mxCell id="80C0kGaNFeoFj5gj8l5e-83" style="edgeStyle=orthogonalEdgeStyle;rounded=0;orthogonalLoop=1;jettySize=auto;html=1;exitX=1;exitY=1;exitDx=0;exitDy=0;entryX=0.5;entryY=0;entryDx=0;entryDy=0;" edge="1" parent="dNxyNK7c78bLwvsdeMH5-20" source="80C0kGaNFeoFj5gj8l5e-50" target="80C0kGaNFeoFj5gj8l5e-80">
          <mxGeometry relative="1" as="geometry" />
        </mxCell>
        <mxCell id="k3hS_G0epfSejRy-nzvK-109" value="No" style="edgeLabel;html=1;align=center;verticalAlign=middle;resizable=0;points=[];" connectable="0" vertex="1" parent="80C0kGaNFeoFj5gj8l5e-83">
          <mxGeometry x="0.0222" y="-1" relative="1" as="geometry">
            <mxPoint as="offset" />
          </mxGeometry>
        </mxCell>
        <mxCell id="80C0kGaNFeoFj5gj8l5e-50" value="¿el contrato lo permite?" style="rhombus;whiteSpace=wrap;html=1;fontColor=#000000;" vertex="1" parent="dNxyNK7c78bLwvsdeMH5-20">
          <mxGeometry x="921" y="165" width="80" height="80" as="geometry" />
        </mxCell>
        <mxCell id="80C0kGaNFeoFj5gj8l5e-81" style="edgeStyle=orthogonalEdgeStyle;rounded=0;orthogonalLoop=1;jettySize=auto;html=1;exitX=1;exitY=0;exitDx=0;exitDy=0;entryX=0.5;entryY=1;entryDx=0;entryDy=0;" edge="1" parent="dNxyNK7c78bLwvsdeMH5-20" source="80C0kGaNFeoFj5gj8l5e-51" target="80C0kGaNFeoFj5gj8l5e-80">
          <mxGeometry relative="1" as="geometry" />
        </mxCell>
        <mxCell id="k3hS_G0epfSejRy-nzvK-110" value="No" style="edgeLabel;html=1;align=center;verticalAlign=middle;resizable=0;points=[];" connectable="0" vertex="1" parent="80C0kGaNFeoFj5gj8l5e-81">
          <mxGeometry x="0.1892" y="3" relative="1" as="geometry">
            <mxPoint as="offset" />
          </mxGeometry>
        </mxCell>
        <mxCell id="80C0kGaNFeoFj5gj8l5e-51" value="¿hay disponibilidad de personal?" style="rhombus;whiteSpace=wrap;html=1;fontColor=#000000;" vertex="1" parent="dNxyNK7c78bLwvsdeMH5-20">
          <mxGeometry x="923" y="288" width="80" height="80" as="geometry" />
        </mxCell>
        <mxCell id="80C0kGaNFeoFj5gj8l5e-75" value="FIN" style="ellipse;whiteSpace=wrap;html=1;rounded=0;fillColor=#f8cecc;strokeColor=#b85450;" vertex="1" parent="dNxyNK7c78bLwvsdeMH5-20">
          <mxGeometry x="1046" y="69.5" width="34" height="33.5" as="geometry" />
        </mxCell>
        <mxCell id="80C0kGaNFeoFj5gj8l5e-80" value="FIN" style="ellipse;whiteSpace=wrap;html=1;rounded=0;fillColor=#f8cecc;strokeColor=#b85450;" vertex="1" parent="dNxyNK7c78bLwvsdeMH5-20">
          <mxGeometry x="980" y="251" width="40" height="37" as="geometry" />
        </mxCell>
        <mxCell id="k3hS_G0epfSejRy-nzvK-95" value="" style="edgeStyle=orthogonalEdgeStyle;rounded=0;orthogonalLoop=1;jettySize=auto;html=1;" edge="1" parent="dNxyNK7c78bLwvsdeMH5-20" source="80C0kGaNFeoFj5gj8l5e-91" target="k3hS_G0epfSejRy-nzvK-94">
          <mxGeometry relative="1" as="geometry" />
        </mxCell>
        <mxCell id="k3hS_G0epfSejRy-nzvK-115" value="No" style="edgeLabel;html=1;align=center;verticalAlign=middle;resizable=0;points=[];" connectable="0" vertex="1" parent="k3hS_G0epfSejRy-nzvK-95">
          <mxGeometry x="-0.6033" y="2" relative="1" as="geometry">
            <mxPoint as="offset" />
          </mxGeometry>
        </mxCell>
        <mxCell id="80C0kGaNFeoFj5gj8l5e-91" value="¿Hay disponibilidad de personal?" style="rhombus;whiteSpace=wrap;html=1;fontColor=#000000;rounded=0;" vertex="1" parent="dNxyNK7c78bLwvsdeMH5-20">
          <mxGeometry x="882" y="370" width="80" height="80" as="geometry" />
        </mxCell>
        <mxCell id="80C0kGaNFeoFj5gj8l5e-97" value="FIN" style="ellipse;whiteSpace=wrap;html=1;rounded=0;fillColor=#f8cecc;strokeColor=#b85450;" vertex="1" parent="dNxyNK7c78bLwvsdeMH5-20">
          <mxGeometry x="852" y="445" width="28" height="29" as="geometry" />
        </mxCell>
        <mxCell id="k3hS_G0epfSejRy-nzvK-216" style="edgeStyle=orthogonalEdgeStyle;rounded=0;orthogonalLoop=1;jettySize=auto;html=1;exitX=1;exitY=1;exitDx=0;exitDy=0;entryX=0;entryY=0.5;entryDx=0;entryDy=0;" edge="1" parent="dNxyNK7c78bLwvsdeMH5-20" source="80C0kGaNFeoFj5gj8l5e-105" target="k3hS_G0epfSejRy-nzvK-211">
          <mxGeometry relative="1" as="geometry" />
        </mxCell>
        <mxCell id="aUFt-qSuvgxoTt3ncgCO-22" value="No" style="edgeLabel;html=1;align=center;verticalAlign=middle;resizable=0;points=[];" connectable="0" vertex="1" parent="k3hS_G0epfSejRy-nzvK-216">
          <mxGeometry x="-0.0476" y="-2" relative="1" as="geometry">
            <mxPoint as="offset" />
          </mxGeometry>
        </mxCell>
        <mxCell id="k3hS_G0epfSejRy-nzvK-329" style="edgeStyle=orthogonalEdgeStyle;rounded=0;orthogonalLoop=1;jettySize=auto;html=1;exitX=1;exitY=0.5;exitDx=0;exitDy=0;entryX=0;entryY=0.5;entryDx=0;entryDy=0;" edge="1" parent="dNxyNK7c78bLwvsdeMH5-20" source="80C0kGaNFeoFj5gj8l5e-105" target="k3hS_G0epfSejRy-nzvK-328">
          <mxGeometry relative="1" as="geometry" />
        </mxCell>
        <mxCell id="aUFt-qSuvgxoTt3ncgCO-21" value="Sí" style="edgeLabel;html=1;align=center;verticalAlign=middle;resizable=0;points=[];" connectable="0" vertex="1" parent="k3hS_G0epfSejRy-nzvK-329">
          <mxGeometry x="-0.2" y="-1" relative="1" as="geometry">
            <mxPoint as="offset" />
          </mxGeometry>
        </mxCell>
        <mxCell id="80C0kGaNFeoFj5gj8l5e-105" value="¿Hay disponibilidad de personal?" style="rhombus;whiteSpace=wrap;html=1;fontColor=#000000;rounded=0;" vertex="1" parent="dNxyNK7c78bLwvsdeMH5-20">
          <mxGeometry x="766" y="771" width="80" height="80" as="geometry" />
        </mxCell>
        <mxCell id="k3hS_G0epfSejRy-nzvK-87" style="edgeStyle=orthogonalEdgeStyle;rounded=0;orthogonalLoop=1;jettySize=auto;html=1;exitX=1;exitY=0.5;exitDx=0;exitDy=0;entryX=0;entryY=0.5;entryDx=0;entryDy=0;" edge="1" parent="dNxyNK7c78bLwvsdeMH5-20" source="k3hS_G0epfSejRy-nzvK-15" target="k3hS_G0epfSejRy-nzvK-86">
          <mxGeometry relative="1" as="geometry" />
        </mxCell>
        <mxCell id="k3hS_G0epfSejRy-nzvK-15" value="Se informa finalización de contrato" style="whiteSpace=wrap;html=1;fontColor=#000000;rounded=0;" vertex="1" parent="dNxyNK7c78bLwvsdeMH5-20">
          <mxGeometry x="599" y="1019" width="120" height="60" as="geometry" />
        </mxCell>
        <mxCell id="k3hS_G0epfSejRy-nzvK-90" value="" style="edgeStyle=orthogonalEdgeStyle;rounded=0;orthogonalLoop=1;jettySize=auto;html=1;" edge="1" parent="dNxyNK7c78bLwvsdeMH5-20" source="k3hS_G0epfSejRy-nzvK-86">
          <mxGeometry relative="1" as="geometry">
            <mxPoint x="806" y="1104" as="targetPoint" />
          </mxGeometry>
        </mxCell>
        <mxCell id="aUFt-qSuvgxoTt3ncgCO-24" value="No" style="edgeLabel;html=1;align=center;verticalAlign=middle;resizable=0;points=[];" connectable="0" vertex="1" parent="k3hS_G0epfSejRy-nzvK-90">
          <mxGeometry x="-0.5299" y="-2" relative="1" as="geometry">
            <mxPoint x="-1" y="4" as="offset" />
          </mxGeometry>
        </mxCell>
        <mxCell id="k3hS_G0epfSejRy-nzvK-92" style="edgeStyle=orthogonalEdgeStyle;rounded=0;orthogonalLoop=1;jettySize=auto;html=1;entryX=0;entryY=0.5;entryDx=0;entryDy=0;" edge="1" parent="dNxyNK7c78bLwvsdeMH5-20" source="k3hS_G0epfSejRy-nzvK-86" target="k3hS_G0epfSejRy-nzvK-91">
          <mxGeometry relative="1" as="geometry" />
        </mxCell>
        <mxCell id="aUFt-qSuvgxoTt3ncgCO-23" value="Sí" style="edgeLabel;html=1;align=center;verticalAlign=middle;resizable=0;points=[];" connectable="0" vertex="1" parent="k3hS_G0epfSejRy-nzvK-92">
          <mxGeometry x="-0.4545" y="1" relative="1" as="geometry">
            <mxPoint as="offset" />
          </mxGeometry>
        </mxCell>
        <mxCell id="k3hS_G0epfSejRy-nzvK-86" value="¿Es posible generar paz y salvo?" style="rhombus;whiteSpace=wrap;html=1;fontColor=#000000;rounded=0;" vertex="1" parent="dNxyNK7c78bLwvsdeMH5-20">
          <mxGeometry x="766" y="1009" width="80" height="80" as="geometry" />
        </mxCell>
        <mxCell id="k3hS_G0epfSejRy-nzvK-89" value="FIN" style="ellipse;whiteSpace=wrap;html=1;rounded=0;fillColor=#f8cecc;strokeColor=#b85450;" vertex="1" parent="dNxyNK7c78bLwvsdeMH5-20">
          <mxGeometry x="789" y="1103" width="34" height="35" as="geometry" />
        </mxCell>
        <mxCell id="k3hS_G0epfSejRy-nzvK-91" value="Se informa a nómina" style="whiteSpace=wrap;html=1;fontColor=#000000;" vertex="1" parent="dNxyNK7c78bLwvsdeMH5-20">
          <mxGeometry x="882" y="1037" width="125" height="24" as="geometry" />
        </mxCell>
        <mxCell id="k3hS_G0epfSejRy-nzvK-94" value="FIN" style="ellipse;whiteSpace=wrap;html=1;rounded=0;fillColor=#f8cecc;strokeColor=#b85450;" vertex="1" parent="dNxyNK7c78bLwvsdeMH5-20">
          <mxGeometry x="1004" y="351" width="32" height="29" as="geometry" />
        </mxCell>
        <mxCell id="k3hS_G0epfSejRy-nzvK-211" value="FIN" style="ellipse;whiteSpace=wrap;html=1;rounded=0;fillColor=#f8cecc;strokeColor=#b85450;fontStyle=1" vertex="1" parent="dNxyNK7c78bLwvsdeMH5-20">
          <mxGeometry x="886" y="851" width="28" height="29" as="geometry" />
        </mxCell>
        <mxCell id="k3hS_G0epfSejRy-nzvK-321" style="edgeStyle=orthogonalEdgeStyle;rounded=0;orthogonalLoop=1;jettySize=auto;html=1;exitX=0.5;exitY=1;exitDx=0;exitDy=0;" edge="1" parent="dNxyNK7c78bLwvsdeMH5-20" source="k3hS_G0epfSejRy-nzvK-311" target="k3hS_G0epfSejRy-nzvK-314">
          <mxGeometry relative="1" as="geometry" />
        </mxCell>
        <mxCell id="k3hS_G0epfSejRy-nzvK-322" style="edgeStyle=orthogonalEdgeStyle;rounded=0;orthogonalLoop=1;jettySize=auto;html=1;exitX=0.5;exitY=1;exitDx=0;exitDy=0;entryX=0.5;entryY=0;entryDx=0;entryDy=0;" edge="1" parent="dNxyNK7c78bLwvsdeMH5-20" source="k3hS_G0epfSejRy-nzvK-311" target="k3hS_G0epfSejRy-nzvK-316">
          <mxGeometry relative="1" as="geometry" />
        </mxCell>
        <mxCell id="k3hS_G0epfSejRy-nzvK-311" value="Se valida el tipo de licencia" style="whiteSpace=wrap;html=1;fontColor=#000000;rounded=0;" vertex="1" parent="dNxyNK7c78bLwvsdeMH5-20">
          <mxGeometry x="746" y="651" width="120" height="30" as="geometry" />
        </mxCell>
        <mxCell id="k3hS_G0epfSejRy-nzvK-323" style="edgeStyle=orthogonalEdgeStyle;rounded=0;orthogonalLoop=1;jettySize=auto;html=1;exitX=0.5;exitY=1;exitDx=0;exitDy=0;entryX=0.5;entryY=0;entryDx=0;entryDy=0;" edge="1" parent="dNxyNK7c78bLwvsdeMH5-20" source="k3hS_G0epfSejRy-nzvK-314" target="80C0kGaNFeoFj5gj8l5e-105">
          <mxGeometry relative="1" as="geometry" />
        </mxCell>
        <mxCell id="k3hS_G0epfSejRy-nzvK-314" value="Maternidad / Paternidad" style="whiteSpace=wrap;html=1;fontColor=#000000;rounded=0;" vertex="1" parent="dNxyNK7c78bLwvsdeMH5-20">
          <mxGeometry x="680" y="711" width="120" height="30" as="geometry" />
        </mxCell>
        <mxCell id="k3hS_G0epfSejRy-nzvK-325" style="edgeStyle=orthogonalEdgeStyle;rounded=0;orthogonalLoop=1;jettySize=auto;html=1;exitX=0.5;exitY=1;exitDx=0;exitDy=0;entryX=0.5;entryY=0;entryDx=0;entryDy=0;" edge="1" parent="dNxyNK7c78bLwvsdeMH5-20" source="k3hS_G0epfSejRy-nzvK-316" target="80C0kGaNFeoFj5gj8l5e-105">
          <mxGeometry relative="1" as="geometry" />
        </mxCell>
        <mxCell id="k3hS_G0epfSejRy-nzvK-316" value="Luto" style="whiteSpace=wrap;html=1;fontColor=#000000;rounded=0;" vertex="1" parent="dNxyNK7c78bLwvsdeMH5-20">
          <mxGeometry x="820" y="711" width="120" height="30" as="geometry" />
        </mxCell>
        <mxCell id="k3hS_G0epfSejRy-nzvK-337" style="edgeStyle=orthogonalEdgeStyle;rounded=0;orthogonalLoop=1;jettySize=auto;html=1;exitX=1;exitY=0.5;exitDx=0;exitDy=0;entryX=0;entryY=0.5;entryDx=0;entryDy=0;" edge="1" parent="dNxyNK7c78bLwvsdeMH5-20" source="k3hS_G0epfSejRy-nzvK-319" target="k3hS_G0epfSejRy-nzvK-333">
          <mxGeometry relative="1" as="geometry" />
        </mxCell>
        <mxCell id="k3hS_G0epfSejRy-nzvK-319" value="Se notifica incapacidad" style="whiteSpace=wrap;html=1;fontColor=#000000;rounded=0;" vertex="1" parent="dNxyNK7c78bLwvsdeMH5-20">
          <mxGeometry x="599" y="903" width="120" height="60" as="geometry" />
        </mxCell>
        <mxCell id="k3hS_G0epfSejRy-nzvK-328" value="Se validan soportes" style="whiteSpace=wrap;html=1;fontColor=#000000;" vertex="1" parent="dNxyNK7c78bLwvsdeMH5-20">
          <mxGeometry x="886" y="799" width="125" height="24" as="geometry" />
        </mxCell>
        <mxCell id="k3hS_G0epfSejRy-nzvK-357" style="edgeStyle=orthogonalEdgeStyle;rounded=0;orthogonalLoop=1;jettySize=auto;html=1;exitX=1;exitY=0.5;exitDx=0;exitDy=0;entryX=0;entryY=0.5;entryDx=0;entryDy=0;" edge="1" parent="dNxyNK7c78bLwvsdeMH5-20" source="k3hS_G0epfSejRy-nzvK-333" target="k3hS_G0epfSejRy-nzvK-356">
          <mxGeometry relative="1" as="geometry" />
        </mxCell>
        <mxCell id="k3hS_G0epfSejRy-nzvK-333" value="Se validan soportes" style="whiteSpace=wrap;html=1;fontColor=#000000;" vertex="1" parent="dNxyNK7c78bLwvsdeMH5-20">
          <mxGeometry x="766" y="921" width="125" height="24" as="geometry" />
        </mxCell>
        <mxCell id="k3hS_G0epfSejRy-nzvK-356" value="FIN" style="ellipse;whiteSpace=wrap;html=1;rounded=0;fillColor=#f8cecc;strokeColor=#b85450;fontStyle=1" vertex="1" parent="dNxyNK7c78bLwvsdeMH5-20">
          <mxGeometry x="940" y="918" width="28" height="29" as="geometry" />
        </mxCell>
        <mxCell id="aUFt-qSuvgxoTt3ncgCO-3" style="edgeStyle=orthogonalEdgeStyle;rounded=0;orthogonalLoop=1;jettySize=auto;html=1;entryX=0;entryY=0.5;entryDx=0;entryDy=0;" edge="1" parent="dNxyNK7c78bLwvsdeMH5-20" source="aUFt-qSuvgxoTt3ncgCO-1" target="G8VEn8A2zDeXbWlmmFCE-42">
          <mxGeometry relative="1" as="geometry" />
        </mxCell>
        <mxCell id="aUFt-qSuvgxoTt3ncgCO-6" value="Sí" style="edgeLabel;html=1;align=center;verticalAlign=middle;resizable=0;points=[];" connectable="0" vertex="1" parent="aUFt-qSuvgxoTt3ncgCO-3">
          <mxGeometry x="-0.0026" relative="1" as="geometry">
            <mxPoint as="offset" />
          </mxGeometry>
        </mxCell>
        <mxCell id="aUFt-qSuvgxoTt3ncgCO-5" style="edgeStyle=orthogonalEdgeStyle;rounded=0;orthogonalLoop=1;jettySize=auto;html=1;exitX=0.5;exitY=1;exitDx=0;exitDy=0;entryX=1;entryY=0.5;entryDx=0;entryDy=0;" edge="1" parent="dNxyNK7c78bLwvsdeMH5-20" source="aUFt-qSuvgxoTt3ncgCO-1" target="G8VEn8A2zDeXbWlmmFCE-45">
          <mxGeometry relative="1" as="geometry" />
        </mxCell>
        <mxCell id="aUFt-qSuvgxoTt3ncgCO-1" value="¿Realizó horas extras?" style="rhombus;whiteSpace=wrap;html=1;fontColor=#000000;rounded=0;" vertex="1" parent="dNxyNK7c78bLwvsdeMH5-20">
          <mxGeometry x="846" width="54" height="51" as="geometry" />
        </mxCell>
        <mxCell id="aUFt-qSuvgxoTt3ncgCO-10" style="edgeStyle=orthogonalEdgeStyle;rounded=0;orthogonalLoop=1;jettySize=auto;html=1;exitX=1;exitY=0.5;exitDx=0;exitDy=0;entryX=0.5;entryY=0;entryDx=0;entryDy=0;" edge="1" parent="dNxyNK7c78bLwvsdeMH5-20" source="aUFt-qSuvgxoTt3ncgCO-7" target="G8VEn8A2zDeXbWlmmFCE-1">
          <mxGeometry relative="1" as="geometry" />
        </mxCell>
        <mxCell id="aUFt-qSuvgxoTt3ncgCO-11" value="Sí" style="edgeLabel;html=1;align=center;verticalAlign=middle;resizable=0;points=[];" connectable="0" vertex="1" parent="aUFt-qSuvgxoTt3ncgCO-10">
          <mxGeometry x="-0.0693" y="1" relative="1" as="geometry">
            <mxPoint as="offset" />
          </mxGeometry>
        </mxCell>
        <mxCell id="aUFt-qSuvgxoTt3ncgCO-7" value="&lt;span style=&quot;color: rgb(0, 0, 0); font-family: Helvetica; font-size: 12px; font-style: normal; font-variant-ligatures: normal; font-variant-caps: normal; font-weight: 400; letter-spacing: normal; orphans: 2; text-align: center; text-indent: 0px; text-transform: none; widows: 2; word-spacing: 0px; -webkit-text-stroke-width: 0px; white-space: normal; background-color: rgb(251, 251, 251); text-decoration-thickness: initial; text-decoration-style: initial; text-decoration-color: initial; display: inline !important; float: none;&quot;&gt;Determina tipo de contrato&lt;/span&gt;" style="rounded=0;whiteSpace=wrap;html=1;" vertex="1" parent="dNxyNK7c78bLwvsdeMH5-20">
          <mxGeometry x="40" y="69" width="60" height="58" as="geometry" />
        </mxCell>
        <mxCell id="dNxyNK7c78bLwvsdeMH5-21" value="Administrativos" style="swimlane;html=1;startSize=20;horizontal=0;" vertex="1" parent="dNxyNK7c78bLwvsdeMH5-19">
          <mxGeometry x="20" y="1220" width="1570" height="239" as="geometry">
            <mxRectangle x="20" y="120" width="430" height="30" as="alternateBounds" />
          </mxGeometry>
        </mxCell>
        <mxCell id="6uNuohvBClFwEubtQM0P-11" value="Se genera contratación" style="rounded=0;whiteSpace=wrap;html=1;fontFamily=Helvetica;fontSize=12;fontColor=#000000;align=center;" vertex="1" parent="dNxyNK7c78bLwvsdeMH5-21">
          <mxGeometry x="153" y="29" width="80" height="60" as="geometry" />
        </mxCell>
        <mxCell id="k3hS_G0epfSejRy-nzvK-352" style="edgeStyle=orthogonalEdgeStyle;rounded=0;orthogonalLoop=1;jettySize=auto;html=1;" edge="1" parent="dNxyNK7c78bLwvsdeMH5-21" source="k3hS_G0epfSejRy-nzvK-350">
          <mxGeometry relative="1" as="geometry">
            <mxPoint x="520" y="-1110" as="targetPoint" />
          </mxGeometry>
        </mxCell>
        <mxCell id="k3hS_G0epfSejRy-nzvK-353" value="Si" style="edgeLabel;html=1;align=center;verticalAlign=middle;resizable=0;points=[];" connectable="0" vertex="1" parent="k3hS_G0epfSejRy-nzvK-352">
          <mxGeometry x="0.9923" y="-3" relative="1" as="geometry">
            <mxPoint as="offset" />
          </mxGeometry>
        </mxCell>
        <mxCell id="k3hS_G0epfSejRy-nzvK-362" style="edgeStyle=orthogonalEdgeStyle;rounded=0;orthogonalLoop=1;jettySize=auto;html=1;exitX=1;exitY=0.75;exitDx=0;exitDy=0;" edge="1" parent="dNxyNK7c78bLwvsdeMH5-21" source="k3hS_G0epfSejRy-nzvK-350" target="k3hS_G0epfSejRy-nzvK-361">
          <mxGeometry relative="1" as="geometry" />
        </mxCell>
        <mxCell id="k3hS_G0epfSejRy-nzvK-350" value="Se reciben novedades" style="rounded=0;whiteSpace=wrap;html=1;fontFamily=Helvetica;fontSize=12;fontColor=#000000;align=center;" vertex="1" parent="dNxyNK7c78bLwvsdeMH5-21">
          <mxGeometry x="1036" y="29" width="80" height="60" as="geometry" />
        </mxCell>
        <mxCell id="k3hS_G0epfSejRy-nzvK-361" value="FIN" style="ellipse;whiteSpace=wrap;html=1;rounded=0;fillColor=#f8cecc;strokeColor=#b85450;" vertex="1" parent="dNxyNK7c78bLwvsdeMH5-21">
          <mxGeometry x="1219" y="56" width="34" height="35" as="geometry" />
        </mxCell>
        <mxCell id="r3GRUUubNPi9_N6KpDjZ-8" style="edgeStyle=orthogonalEdgeStyle;rounded=0;orthogonalLoop=1;jettySize=auto;html=1;exitX=1;exitY=0.5;exitDx=0;exitDy=0;entryX=0;entryY=0.5;entryDx=0;entryDy=0;" edge="1" parent="dNxyNK7c78bLwvsdeMH5-21" source="r3GRUUubNPi9_N6KpDjZ-2" target="r3GRUUubNPi9_N6KpDjZ-7">
          <mxGeometry relative="1" as="geometry" />
        </mxCell>
        <mxCell id="aUFt-qSuvgxoTt3ncgCO-17" value="No" style="edgeLabel;html=1;align=center;verticalAlign=middle;resizable=0;points=[];" connectable="0" vertex="1" parent="r3GRUUubNPi9_N6KpDjZ-8">
          <mxGeometry x="-0.4" relative="1" as="geometry">
            <mxPoint as="offset" />
          </mxGeometry>
        </mxCell>
        <mxCell id="r3GRUUubNPi9_N6KpDjZ-2" value="&lt;font style=&quot;vertical-align: inherit;&quot;&gt;&lt;font style=&quot;vertical-align: inherit;&quot;&gt;¿Se aprueba ingreso de personal?&lt;/font&gt;&lt;/font&gt;" style="rhombus;whiteSpace=wrap;html=1;fontColor=#000000;rounded=0;" vertex="1" parent="dNxyNK7c78bLwvsdeMH5-21">
          <mxGeometry x="40" y="128" width="80" height="80" as="geometry" />
        </mxCell>
        <mxCell id="r3GRUUubNPi9_N6KpDjZ-7" value="FIN" style="ellipse;whiteSpace=wrap;html=1;rounded=0;fillColor=#f8cecc;strokeColor=#b85450;" vertex="1" parent="dNxyNK7c78bLwvsdeMH5-21">
          <mxGeometry x="150" y="150.5" width="34" height="35" as="geometry" />
        </mxCell>
        <mxCell id="aUFt-qSuvgxoTt3ncgCO-14" style="edgeStyle=orthogonalEdgeStyle;rounded=0;orthogonalLoop=1;jettySize=auto;html=1;exitX=0.5;exitY=1;exitDx=0;exitDy=0;entryX=0.5;entryY=0;entryDx=0;entryDy=0;" edge="1" parent="dNxyNK7c78bLwvsdeMH5-21" source="aUFt-qSuvgxoTt3ncgCO-13" target="r3GRUUubNPi9_N6KpDjZ-2">
          <mxGeometry relative="1" as="geometry" />
        </mxCell>
        <mxCell id="aUFt-qSuvgxoTt3ncgCO-13" value="Se realiza solicitud de personal" style="ellipse;whiteSpace=wrap;html=1;rounded=0;fillColor=#d5e8d4;strokeColor=#82b366;" vertex="1" parent="dNxyNK7c78bLwvsdeMH5-21">
          <mxGeometry x="40" y="11" width="80" height="79" as="geometry" />
        </mxCell>
        <mxCell id="dNxyNK7c78bLwvsdeMH5-22" value="Gerencia" style="swimlane;html=1;startSize=20;horizontal=0;" vertex="1" parent="dNxyNK7c78bLwvsdeMH5-19">
          <mxGeometry x="20" y="1459" width="1570" height="120" as="geometry" />
        </mxCell>
        <mxCell id="dNxyNK7c78bLwvsdeMH5-34" value="&lt;font style=&quot;vertical-align: inherit;&quot;&gt;&lt;font style=&quot;vertical-align: inherit;&quot;&gt;Se aprueba&lt;/font&gt;&lt;/font&gt;" style="rounded=0;whiteSpace=wrap;html=1;fontFamily=Helvetica;fontSize=12;fontColor=#000000;align=center;" vertex="1" parent="dNxyNK7c78bLwvsdeMH5-22">
          <mxGeometry x="40" y="28" width="80" height="60" as="geometry" />
        </mxCell>
        <mxCell id="k3hS_G0epfSejRy-nzvK-364" style="edgeStyle=orthogonalEdgeStyle;rounded=0;orthogonalLoop=1;jettySize=auto;html=1;exitX=1;exitY=0.5;exitDx=0;exitDy=0;entryX=0;entryY=0.5;entryDx=0;entryDy=0;" edge="1" parent="dNxyNK7c78bLwvsdeMH5-22" source="k3hS_G0epfSejRy-nzvK-354" target="k3hS_G0epfSejRy-nzvK-363">
          <mxGeometry relative="1" as="geometry" />
        </mxCell>
        <mxCell id="k3hS_G0epfSejRy-nzvK-354" value="Se reciben reportes" style="rounded=0;whiteSpace=wrap;html=1;fontFamily=Helvetica;fontSize=12;fontColor=#000000;align=center;" vertex="1" parent="dNxyNK7c78bLwvsdeMH5-22">
          <mxGeometry x="1205" y="15" width="80" height="60" as="geometry" />
        </mxCell>
        <mxCell id="k3hS_G0epfSejRy-nzvK-363" value="FIN" style="ellipse;whiteSpace=wrap;html=1;rounded=0;fillColor=#f8cecc;strokeColor=#b85450;" vertex="1" parent="dNxyNK7c78bLwvsdeMH5-22">
          <mxGeometry x="1363" y="27" width="34" height="35" as="geometry" />
        </mxCell>
        <mxCell id="k3hS_G0epfSejRy-nzvK-358" style="edgeStyle=orthogonalEdgeStyle;rounded=0;orthogonalLoop=1;jettySize=auto;html=1;entryX=1;entryY=0.5;entryDx=0;entryDy=0;" edge="1" parent="dNxyNK7c78bLwvsdeMH5-19" source="G8VEn8A2zDeXbWlmmFCE-42" target="k3hS_G0epfSejRy-nzvK-350">
          <mxGeometry relative="1" as="geometry" />
        </mxCell>
        <mxCell id="k3hS_G0epfSejRy-nzvK-360" style="edgeStyle=orthogonalEdgeStyle;rounded=0;orthogonalLoop=1;jettySize=auto;html=1;exitX=0.5;exitY=1;exitDx=0;exitDy=0;" edge="1" parent="dNxyNK7c78bLwvsdeMH5-19" source="k3hS_G0epfSejRy-nzvK-350" target="k3hS_G0epfSejRy-nzvK-354">
          <mxGeometry relative="1" as="geometry" />
        </mxCell>
        <mxCell id="k3hS_G0epfSejRy-nzvK-365" style="edgeStyle=orthogonalEdgeStyle;rounded=0;orthogonalLoop=1;jettySize=auto;html=1;exitX=0.5;exitY=1;exitDx=0;exitDy=0;entryX=0.5;entryY=0;entryDx=0;entryDy=0;" edge="1" parent="dNxyNK7c78bLwvsdeMH5-19" source="k3hS_G0epfSejRy-nzvK-91" target="k3hS_G0epfSejRy-nzvK-350">
          <mxGeometry relative="1" as="geometry" />
        </mxCell>
        <mxCell id="r3GRUUubNPi9_N6KpDjZ-6" style="edgeStyle=orthogonalEdgeStyle;rounded=0;orthogonalLoop=1;jettySize=auto;html=1;exitX=0.5;exitY=1;exitDx=0;exitDy=0;entryX=0.5;entryY=0;entryDx=0;entryDy=0;" edge="1" parent="dNxyNK7c78bLwvsdeMH5-19" source="r3GRUUubNPi9_N6KpDjZ-2" target="dNxyNK7c78bLwvsdeMH5-34">
          <mxGeometry relative="1" as="geometry" />
        </mxCell>
        <mxCell id="aUFt-qSuvgxoTt3ncgCO-16" value="Sí" style="edgeLabel;html=1;align=center;verticalAlign=middle;resizable=0;points=[];" connectable="0" vertex="1" parent="r3GRUUubNPi9_N6KpDjZ-6">
          <mxGeometry x="-0.1525" y="-2" relative="1" as="geometry">
            <mxPoint as="offset" />
          </mxGeometry>
        </mxCell>
        <mxCell id="r3GRUUubNPi9_N6KpDjZ-9" style="edgeStyle=orthogonalEdgeStyle;rounded=0;orthogonalLoop=1;jettySize=auto;html=1;exitX=0.5;exitY=0;exitDx=0;exitDy=0;entryX=0;entryY=1;entryDx=0;entryDy=0;" edge="1" parent="dNxyNK7c78bLwvsdeMH5-19" source="6uNuohvBClFwEubtQM0P-11">
          <mxGeometry relative="1" as="geometry">
            <mxPoint x="68.78679656440363" y="128.21320343559637" as="targetPoint" />
          </mxGeometry>
        </mxCell>
        <mxCell id="r3GRUUubNPi9_N6KpDjZ-10" style="edgeStyle=orthogonalEdgeStyle;rounded=0;orthogonalLoop=1;jettySize=auto;html=1;exitX=1;exitY=0.5;exitDx=0;exitDy=0;entryX=0.75;entryY=1;entryDx=0;entryDy=0;" edge="1" parent="dNxyNK7c78bLwvsdeMH5-19" source="dNxyNK7c78bLwvsdeMH5-34" target="6uNuohvBClFwEubtQM0P-11">
          <mxGeometry relative="1" as="geometry" />
        </mxCell>
        <mxCell id="aUFt-qSuvgxoTt3ncgCO-15" value="Sí" style="edgeLabel;html=1;align=center;verticalAlign=middle;resizable=0;points=[];" connectable="0" vertex="1" parent="r3GRUUubNPi9_N6KpDjZ-10">
          <mxGeometry x="-0.6013" y="-1" relative="1" as="geometry">
            <mxPoint as="offset" />
          </mxGeometry>
        </mxCell>
      </root>
    </mxGraphModel>
  </diagram>
  <diagram id="BbqSTAJXHLdeA9m8Pl2a" name="Página-2">
    <mxGraphModel grid="1" page="1" gridSize="10" guides="1" tooltips="1" connect="1" arrows="1" fold="1" pageScale="1" pageWidth="827" pageHeight="1169" math="0" shadow="0">
      <root>
        <mxCell id="0" />
        <mxCell id="1" parent="0" />
      </root>
    </mxGraphModel>
  </diagram>
</mxfile>
